<svg width="31" height="30" viewBox="0 0 31 30" fill="none" xmlns="http://www.w3.org/2000/svg">
<g id="ph:copyright">
<path id="Vector" d="M15.5 2.8125C13.0895 2.8125 10.7332 3.52728 8.72899 4.86646C6.72477 6.20564 5.16267 8.10907 4.24022 10.336C3.31778 12.563 3.07643 15.0135 3.54668 17.3777C4.01694 19.7418 5.17769 21.9134 6.88214 23.6179C8.58659 25.3223 10.7582 26.4831 13.1223 26.9533C15.4865 27.4236 17.937 27.1822 20.164 26.2598C22.3909 25.3373 24.2944 23.7752 25.6335 21.771C26.9727 19.7668 27.6875 17.4105 27.6875 15C27.6841 11.7687 26.399 8.67076 24.1141 6.3859C21.8292 4.10104 18.7313 2.81591 15.5 2.8125ZM15.5 25.3125C13.4604 25.3125 11.4666 24.7077 9.77069 23.5745C8.07481 22.4414 6.75303 20.8308 5.9725 18.9464C5.19197 17.0621 4.98775 14.9886 5.38566 12.9881C5.78357 10.9877 6.76574 9.15019 8.20797 7.70796C9.6502 6.26573 11.4877 5.28356 13.4881 4.88565C15.4886 4.48774 17.5621 4.69196 19.4464 5.47249C21.3308 6.25302 22.9414 7.5748 24.0745 9.27068C25.2077 10.9666 25.8125 12.9604 25.8125 15C25.8094 17.7341 24.7219 20.3553 22.7886 22.2886C20.8553 24.2219 18.2341 25.3094 15.5 25.3125ZM11.75 15C11.75 15.7871 11.9976 16.5542 12.4578 17.1927C12.918 17.8312 13.5675 18.3087 14.3142 18.5576C15.0608 18.8065 15.8669 18.8141 16.6181 18.5794C17.3694 18.3448 18.0278 17.8796 18.5 17.25C18.6493 17.0511 18.8716 16.9196 19.1178 16.8846C19.3641 16.8495 19.6142 16.9137 19.8131 17.0631C20.012 17.2124 20.1434 17.4347 20.1785 17.6809C20.2136 17.9272 20.1493 18.1773 20 18.3762C19.2915 19.3204 18.3039 20.0177 17.177 20.3695C16.0502 20.7212 14.8412 20.7096 13.7214 20.3361C12.6016 19.9627 11.6276 19.2464 10.9374 18.2887C10.2473 17.331 9.87588 16.1805 9.87588 15C9.87588 13.8195 10.2473 12.669 10.9374 11.7113C11.6276 10.7536 12.6016 10.0373 13.7214 9.66389C14.8412 9.29045 16.0502 9.27878 17.177 9.63053C18.3039 9.98229 19.2915 10.6796 20 11.6238C20.0739 11.7223 20.1278 11.8344 20.1584 11.9537C20.189 12.073 20.1959 12.1972 20.1785 12.3191C20.1611 12.441 20.1199 12.5583 20.0572 12.6643C19.9945 12.7703 19.9116 12.863 19.8131 12.9369C19.7146 13.0109 19.6025 13.0647 19.4832 13.0953C19.3639 13.1259 19.2398 13.1328 19.1178 13.1154C18.9959 13.098 18.8786 13.0568 18.7726 12.9942C18.6666 12.9315 18.574 12.8485 18.5 12.75C18.0278 12.1204 17.3694 11.6552 16.6181 11.4206C15.8669 11.1859 15.0608 11.1935 14.3142 11.4424C13.5675 11.6913 12.918 12.1688 12.4578 12.8073C11.9976 13.4458 11.75 14.2129 11.75 15Z" fill="#0A2540" fill-opacity="0.5"/>
</g>
</svg>
