<svg width="16" height="17" viewBox="0 0 16 17" fill="none" xmlns="http://www.w3.org/2000/svg">
<g id="bi:instagram" clip-path="url(#clip0_4529_1085)">
<path id="Vector" d="M8 0.238281C5.829 0.238281 5.556 0.248281 4.703 0.286281C3.85 0.326281 3.269 0.460281 2.76 0.658281C2.22584 0.858607 1.74214 1.17368 1.343 1.58128C0.935398 1.98042 0.620326 2.46413 0.42 2.99828C0.222 3.50628 0.087 4.08828 0.048 4.93828C0.01 5.79328 0 6.06528 0 8.23928C0 10.4113 0.01 10.6833 0.048 11.5363C0.088 12.3883 0.222 12.9693 0.42 13.4783C0.625 14.0043 0.898 14.4503 1.343 14.8953C1.787 15.3403 2.233 15.6143 2.759 15.8183C3.269 16.0163 3.849 16.1513 4.701 16.1903C5.555 16.2283 5.827 16.2383 8 16.2383C10.173 16.2383 10.444 16.2283 11.298 16.1903C12.149 16.1503 12.732 16.0163 13.241 15.8183C13.7748 15.6178 14.2581 15.3028 14.657 14.8953C15.102 14.4503 15.375 14.0043 15.58 13.4783C15.777 12.9693 15.912 12.3883 15.952 11.5363C15.99 10.6833 16 10.4113 16 8.23828C16 6.06528 15.99 5.79328 15.952 4.93928C15.912 4.08828 15.777 3.50628 15.58 2.99828C15.3797 2.46413 15.0646 1.98042 14.657 1.58128C14.2579 1.17368 13.7742 0.858607 13.24 0.658281C12.73 0.460281 12.148 0.325281 11.297 0.286281C10.443 0.248281 10.172 0.238281 7.998 0.238281H8ZM7.283 1.68028H8.001C10.137 1.68028 10.39 1.68728 11.233 1.72628C12.013 1.76128 12.437 1.89228 12.719 2.00128C13.092 2.14628 13.359 2.32028 13.639 2.60028C13.919 2.88028 14.092 3.14628 14.237 3.52028C14.347 3.80128 14.477 4.22528 14.512 5.00528C14.551 5.84828 14.559 6.10128 14.559 8.23628C14.559 10.3713 14.551 10.6253 14.512 11.4683C14.477 12.2483 14.346 12.6713 14.237 12.9533C14.1078 13.3002 13.9032 13.6141 13.638 13.8723C13.358 14.1523 13.092 14.3253 12.718 14.4703C12.438 14.5803 12.014 14.7103 11.233 14.7463C10.39 14.7843 10.137 14.7933 8.001 14.7933C5.865 14.7933 5.611 14.7843 4.768 14.7463C3.988 14.7103 3.565 14.5803 3.283 14.4703C2.93583 14.3415 2.6216 14.1373 2.363 13.8723C2.09727 13.6139 1.89233 13.2996 1.763 12.9523C1.654 12.6713 1.523 12.2473 1.488 11.4673C1.45 10.6243 1.442 10.3713 1.442 8.23428C1.442 6.09728 1.45 5.84628 1.488 5.00328C1.524 4.22328 1.654 3.79928 1.764 3.51728C1.909 3.14428 2.083 2.87728 2.363 2.59728C2.643 2.31728 2.909 2.14428 3.283 1.99928C3.565 1.88928 3.988 1.75928 4.768 1.72328C5.506 1.68928 5.792 1.67928 7.283 1.67828V1.68028ZM12.271 3.00828C12.1449 3.00828 12.0201 3.03311 11.9036 3.08136C11.7872 3.1296 11.6813 3.20031 11.5922 3.28946C11.503 3.3786 11.4323 3.48443 11.3841 3.60091C11.3358 3.71738 11.311 3.84221 11.311 3.96828C11.311 4.09435 11.3358 4.21918 11.3841 4.33566C11.4323 4.45213 11.503 4.55796 11.5922 4.6471C11.6813 4.73625 11.7872 4.80696 11.9036 4.85521C12.0201 4.90345 12.1449 4.92828 12.271 4.92828C12.5256 4.92828 12.7698 4.82714 12.9498 4.6471C13.1299 4.46707 13.231 4.22289 13.231 3.96828C13.231 3.71367 13.1299 3.46949 12.9498 3.28946C12.7698 3.10942 12.5256 3.00828 12.271 3.00828ZM8.001 4.13028C7.45607 4.12178 6.91489 4.22177 6.40898 4.42442C5.90306 4.62708 5.44251 4.92835 5.05415 5.3107C4.66579 5.69306 4.35736 6.14885 4.14684 6.65154C3.93632 7.15423 3.8279 7.69379 3.8279 8.23878C3.8279 8.78378 3.93632 9.32333 4.14684 9.82602C4.35736 10.3287 4.66579 10.7845 5.05415 11.1669C5.44251 11.5492 5.90306 11.8505 6.40898 12.0531C6.91489 12.2558 7.45607 12.3558 8.001 12.3473C9.07954 12.3305 10.1082 11.8902 10.865 11.1215C11.6217 10.3529 12.0459 9.31745 12.0459 8.23878C12.0459 7.16011 11.6217 6.12469 10.865 5.35603C10.1082 4.58737 9.07954 4.14711 8.001 4.13028ZM8.001 5.57128C8.35124 5.57128 8.69804 5.64026 9.02162 5.77429C9.34519 5.90832 9.6392 6.10477 9.88685 6.35243C10.1345 6.60008 10.331 6.89409 10.465 7.21766C10.599 7.54124 10.668 7.88805 10.668 8.23828C10.668 8.58852 10.599 8.93532 10.465 9.2589C10.331 9.58247 10.1345 9.87648 9.88685 10.1241C9.6392 10.3718 9.34519 10.5682 9.02162 10.7023C8.69804 10.8363 8.35124 10.9053 8.001 10.9053C7.29367 10.9053 6.61531 10.6243 6.11515 10.1241C5.61499 9.62398 5.334 8.94561 5.334 8.23828C5.334 7.53095 5.61499 6.85259 6.11515 6.35243C6.61531 5.85227 7.29367 5.57128 8.001 5.57128Z" fill="#133682"/>
</g>
<defs>
<clipPath id="clip0_4529_1085">
<rect width="16" height="16" fill="white" transform="translate(0 0.238281)"/>
</clipPath>
</defs>
</svg>
