<svg width="24" height="25" viewBox="0 0 24 25" fill="none" xmlns="http://www.w3.org/2000/svg">
<g id="mdi:linkedin">
<path id="Vector" d="M19 3.23828C19.5304 3.23828 20.0391 3.44899 20.4142 3.82407C20.7893 4.19914 21 4.70785 21 5.23828V19.2383C21 19.7687 20.7893 20.2774 20.4142 20.6525C20.0391 21.0276 19.5304 21.2383 19 21.2383H5C4.46957 21.2383 3.96086 21.0276 3.58579 20.6525C3.21071 20.2774 3 19.7687 3 19.2383V5.23828C3 4.70785 3.21071 4.19914 3.58579 3.82407C3.96086 3.44899 4.46957 3.23828 5 3.23828H19ZM18.5 18.7383V13.4383C18.5 12.5737 18.1565 11.7445 17.5452 11.1331C16.9338 10.5217 16.1046 10.1783 15.24 10.1783C14.39 10.1783 13.4 10.6983 12.92 11.4783V10.3683H10.13V18.7383H12.92V13.8083C12.92 13.0383 13.54 12.4083 14.31 12.4083C14.6813 12.4083 15.0374 12.5558 15.2999 12.8183C15.5625 13.0809 15.71 13.437 15.71 13.8083V18.7383H18.5ZM6.88 8.79828C7.32556 8.79828 7.75288 8.62128 8.06794 8.30622C8.383 7.99116 8.56 7.56385 8.56 7.11828C8.56 6.18828 7.81 5.42828 6.88 5.42828C6.43178 5.42828 6.00193 5.60633 5.68499 5.92327C5.36805 6.24021 5.19 6.67007 5.19 7.11828C5.19 8.04828 5.95 8.79828 6.88 8.79828ZM8.27 18.7383V10.3683H5.5V18.7383H8.27Z" fill="#133682"/>
</g>
</svg>
