<svg width="21" height="22" viewBox="0 0 21 22" fill="none" xmlns="http://www.w3.org/2000/svg">
<g id="system-uicons:location">
<g id="Group">
<path id="Vector" fill-rule="evenodd" clip-rule="evenodd" d="M10.4946 18.7783L11.1256 18.0673C11.8416 17.2473 12.4856 16.4693 13.0586 15.7293L13.5316 15.1053C15.5066 12.4443 16.4946 10.3323 16.4946 8.77128C16.4946 5.43928 13.8086 2.73828 10.4946 2.73828C7.18063 2.73828 4.49463 5.43928 4.49463 8.77128C4.49463 10.3323 5.48263 12.4443 7.45763 15.1053L7.93063 15.7293C8.74807 16.7767 9.6033 17.793 10.4946 18.7783Z" stroke="#133682" stroke-linecap="round" stroke-linejoin="round"/>
<path id="Vector_2" d="M10.4946 11.2383C11.8753 11.2383 12.9946 10.119 12.9946 8.73828C12.9946 7.35757 11.8753 6.23828 10.4946 6.23828C9.11392 6.23828 7.99463 7.35757 7.99463 8.73828C7.99463 10.119 9.11392 11.2383 10.4946 11.2383Z" stroke="#133682" stroke-linecap="round" stroke-linejoin="round"/>
</g>
</g>
</svg>
