<svg width="24" height="25" viewBox="0 0 24 25" fill="none" xmlns="http://www.w3.org/2000/svg">
<g id="material-symbols:mail">
<path id="Vector" d="M4 20.2383C3.45 20.2383 2.97933 20.0426 2.588 19.6513C2.19667 19.2599 2.00067 18.7889 2 18.2383V6.23828C2 5.68828 2.196 5.21761 2.588 4.82628C2.98 4.43495 3.45067 4.23895 4 4.23828H20C20.55 4.23828 21.021 4.43428 21.413 4.82628C21.805 5.21828 22.0007 5.68895 22 6.23828V18.2383C22 18.7883 21.8043 19.2593 21.413 19.6513C21.0217 20.0433 20.5507 20.2389 20 20.2383H4ZM12 13.2383L20 8.23828V6.23828L12 11.2383L4 6.23828V8.23828L12 13.2383Z" fill="#133682"/>
</g>
</svg>
