<svg width="24" height="25" viewBox="0 0 24 25" fill="none" xmlns="http://www.w3.org/2000/svg">
<g id="mdi:youtube">
<path id="Vector" d="M10 15.2383L15.19 12.2383L10 9.23828V15.2383ZM21.56 7.40828C21.69 7.87828 21.78 8.50828 21.84 9.30828C21.91 10.1083 21.94 10.7983 21.94 11.3983L22 12.2383C22 14.4283 21.84 16.0383 21.56 17.0683C21.31 17.9683 20.73 18.5483 19.83 18.7983C19.36 18.9283 18.5 19.0183 17.18 19.0783C15.88 19.1483 14.69 19.1783 13.59 19.1783L12 19.2383C7.81 19.2383 5.2 19.0783 4.17 18.7983C3.27 18.5483 2.69 17.9683 2.44 17.0683C2.31 16.5983 2.22 15.9683 2.16 15.1683C2.09 14.3683 2.06 13.6783 2.06 13.0783L2 12.2383C2 10.0483 2.16 8.43828 2.44 7.40828C2.69 6.50828 3.27 5.92828 4.17 5.67828C4.64 5.54828 5.5 5.45828 6.82 5.39828C8.12 5.32828 9.31 5.29828 10.41 5.29828L12 5.23828C16.19 5.23828 18.8 5.39828 19.83 5.67828C20.73 5.92828 21.31 6.50828 21.56 7.40828Z" fill="#133682"/>
</g>
</svg>
